<svg width="162" height="68" viewBox="0 0 162 68" fill="none" xmlns="http://www.w3.org/2000/svg">
<path d="M19.7759 16.6207H17.6379V14.1264C17.6379 10.7863 20.3953 8.06897 23.7845 8.06897V10.2069C21.5741 10.2069 19.7759 11.9652 19.7759 14.1264V16.6207Z" fill="#91563A"/>
<path d="M8.55176 41.2069H53.4483V49.7586H8.55176V41.2069Z" fill="#6E3D26"/>
<path d="M48.1034 13.4138H45.9655V11.2759C45.9667 10.1422 46.4176 9.05538 47.2192 8.25378C48.0208 7.45217 49.1077 7.00127 50.2413 7V9.13793C49.6745 9.1386 49.1311 9.36406 48.7303 9.76486C48.3295 10.1657 48.1041 10.7091 48.1034 11.2759V13.4138Z" fill="#699B46"/>
<path d="M46.5 30.5172C51.5182 30.5172 55.5862 26.4492 55.5862 21.431C55.5862 16.4129 51.5182 12.3448 46.5 12.3448C41.4819 12.3448 37.4138 16.4129 37.4138 21.431C37.4138 26.4492 41.4819 30.5172 46.5 30.5172Z" fill="#EF7800"/>
<path d="M58.3214 17.409C57.6136 15.1737 56.0518 13.3083 53.9757 12.2185C52.9657 11.6932 51.8588 11.38 50.7232 11.2982C49.5876 11.2163 48.4473 11.3676 47.3723 11.7427L45.9655 12.2324L46.4371 13.6944C47.1449 15.9297 48.7067 17.7951 50.7827 18.8849C51.7928 19.4102 52.8997 19.7234 54.0353 19.8053C55.1709 19.8871 56.3112 19.7358 57.3861 19.3607L58.793 18.871L58.3214 17.409Z" fill="#7EB357"/>
<path d="M22.7156 31.5862C21.7781 31.5876 20.8775 31.2211 20.2074 30.5655C19.8061 30.1742 19.2679 29.9552 18.7075 29.9552C18.147 29.9552 17.6088 30.1742 17.2076 30.5655C16.5372 31.2213 15.6362 31.5878 14.6983 31.5862C14.0084 31.5891 13.3325 31.3909 12.7535 31.0158C12.1745 30.6407 11.7173 30.1049 11.438 29.4741L10.2835 26.8276C9.14174 24.2123 8.55219 21.3894 8.55176 18.5357C8.55176 16.1005 10.5611 14.1263 13.0398 14.1263C14.226 14.1248 15.3654 14.5886 16.2133 15.4181C16.8803 16.0687 17.7752 16.4329 18.7069 16.4329C19.6387 16.4329 20.5336 16.0687 21.2006 15.4181C22.0485 14.5887 23.1879 14.125 24.3741 14.1267C26.8527 14.1267 28.8621 16.1008 28.8621 18.5361C28.8615 21.3899 28.2717 24.2127 27.1297 26.828L25.9752 29.4745C25.6959 30.1051 25.2388 30.6408 24.6599 31.0158C24.081 31.3908 23.4053 31.5891 22.7156 31.5862V31.5862Z" fill="#EA606F"/>
<path d="M53.4483 40.1379C58.1713 40.1379 62.0001 36.3092 62.0001 31.5862C62.0001 26.8632 58.1713 23.0345 53.4483 23.0345C48.7253 23.0345 44.8966 26.8632 44.8966 31.5862C44.8966 36.3092 48.7253 40.1379 53.4483 40.1379Z" fill="#F88400"/>
<path d="M38.3032 16.845C38.1469 17.9628 37.8966 19.0654 37.5549 20.1411C34.7207 29.0871 25.923 34.9329 16.5139 33.5737C7.10491 32.2145 0.26727 24.1076 0.00831345 14.7145C-0.0236937 13.5856 0.0395547 12.456 0.197387 11.3377C0.270076 10.8198 0.364413 10.3099 0.475451 9.8075L2.2641 9.37845C2.68939 10.83 3.27956 12.2281 4.02308 13.5454C6.87121 18.5963 11.8829 22.3028 17.9731 23.1831C24.0632 24.0634 29.8961 21.9246 34.0209 17.8811C35.0982 16.8266 36.0502 15.6512 36.858 14.3784L38.4574 15.297C38.4257 15.8109 38.3759 16.3267 38.3032 16.845V16.845Z" fill="#F9A40F"/>
<path d="M2.2641 9.37845C2.68939 10.83 3.27956 12.2281 4.02308 13.5454L0.00831345 14.7145C-0.0236937 13.5856 0.0395547 12.456 0.197387 11.3377C0.270076 10.8198 0.364413 10.3099 0.475451 9.8075L2.2641 9.37845Z" fill="#91563A"/>
<path d="M42.7587 12.4193L41.6376 16.2929L38.4358 15.2214C38.6562 16.2611 38.7935 17.3166 38.8464 18.3781C38.8504 18.4716 38.8548 18.5659 38.8573 18.6595C39.1856 27.936 33.0249 36.4436 23.8436 38.5755C14.5703 40.7289 5.3514 35.6478 1.83892 26.9712C1.80284 26.8821 1.76676 26.793 1.73389 26.7032C1.35953 25.7433 1.06069 24.7557 0.840103 23.7494C0.727728 23.2393 0.638469 22.729 0.567383 22.2195L2.09066 21.1682C2.83717 22.1599 3.67664 23.0782 4.59765 23.9104C4.79207 24.0841 4.98729 24.2535 5.18665 24.4189C7.42924 26.3003 10.0787 27.6343 12.9257 28.3153C15.7726 28.9963 18.739 29.0057 21.5902 28.3427C27.5932 26.9488 32.3038 22.8298 34.7544 17.5534C34.758 17.5475 34.7597 17.54 34.7633 17.5345C35.2361 16.5162 35.6216 15.4595 35.9157 14.3759L32.2553 13.1486L33.7292 9.13794L42.7587 12.4193Z" fill="#FFB431"/>
<path d="M4.59805 23.9104C3.64721 24.8438 2.60603 25.8603 1.73389 26.703C1.35953 25.7432 1.06069 24.7556 0.840103 23.7492C0.727728 23.2392 0.638469 22.7289 0.567383 22.2194L2.09066 21.1681C2.83729 22.1599 3.6769 23.0781 4.59805 23.9104Z" fill="#91563A"/>
<path d="M42.7586 12.4193L41.6376 16.2929L38.4357 15.2214C38.6562 16.2611 38.7935 17.3166 38.8464 18.3781C38.8504 18.4716 38.8548 18.5659 38.8573 18.6595L34.7637 17.5345C35.2364 16.5161 35.6218 15.4595 35.9157 14.3759L32.2552 13.1486L33.7292 9.13794L42.7586 12.4193Z" fill="#91563A"/>
<path d="M47.4019 27.1233C47.851 26.6741 48.1034 26.0648 48.1034 25.4296C48.1034 24.7943 47.851 24.1851 47.4019 23.7359C46.9526 23.2867 46.3434 23.0344 45.7082 23.0344C45.0729 23.0344 44.4637 23.2867 44.0144 23.7359L43.7322 24.0181C40.4508 22.4027 36.0742 23.2077 33.0053 26.2763C29.2639 30.0176 28.8844 35.7051 32.1584 38.979C35.4324 42.253 41.1196 41.8738 44.8612 38.1322C47.9301 35.0634 48.735 30.6867 47.1194 27.4052L47.4019 27.1233Z" fill="#FDD560"/>
<path d="M0 32.6552H10.6897V58.3104H0V32.6552Z" fill="#804A32"/>
<path d="M51.3103 32.6552H62V58.3104H51.3103V32.6552Z" fill="#804A32"/>
<path d="M0 47.6207H62V58.3104H0V47.6207Z" fill="#91563A"/>
<path d="M0 32.6552H62V43.3448H0V32.6552Z" fill="#91563A"/>
<path d="M4.27576 51.8965H6.41369V54.0345H4.27576V51.8965Z" fill="#754029"/>
<path d="M55.5862 51.8965H57.7241V54.0345H55.5862V51.8965Z" fill="#754029"/>
<path d="M4.27588 36.931H6.41381V39.069H4.27588V36.931Z" fill="#754029"/>
<path d="M55.5862 36.9311H57.7241V39.069H55.5862V36.9311Z" fill="#754029"/>
<path d="M84.17 12.22C83.75 12.56 83.54 13.35 83.54 14.59C84.88 14.59 85.81 14.72 86.33 14.98C86.85 15.22 87.11 15.76 87.11 16.6C87.11 17.28 86.83 17.73 86.27 17.95C85.71 18.15 84.8 18.25 83.54 18.25V23.5C83.54 25.2 83.27 26.38 82.73 27.04C82.21 27.68 81.38 28 80.24 28C79.12 28 78.3 27.69 77.78 27.07C77.26 26.43 77 25.31 77 23.71L77.03 18.25C75.55 18.23 74.81 17.65 74.81 16.51C74.81 15.33 75.56 14.7 77.06 14.62C77.08 12.04 77.45 10.21 78.17 9.13C78.91 8.03 80.32 7.48 82.4 7.48C84.06 7.48 85.35 7.82 86.27 8.5C87.21 9.18 87.68 9.87 87.68 10.57C87.68 10.87 87.55 11.14 87.29 11.38C87.05 11.6 86.7 11.71 86.24 11.71C85.26 11.71 84.57 11.88 84.17 12.22ZM95.4823 24.79C95.4823 25.99 95.2323 26.83 94.7323 27.31C94.2323 27.77 93.3423 28 92.0623 28C90.8823 28 90.0823 27.73 89.6623 27.19C89.2423 26.63 89.0323 25.72 89.0323 24.46V17.08C89.0323 16.4 89.1523 15.81 89.3923 15.31C89.6323 14.79 89.9823 14.39 90.4423 14.11C90.9023 13.83 91.4423 13.69 92.0623 13.69C93.5823 13.69 94.5823 14.13 95.0623 15.01C96.2223 14.13 97.3423 13.69 98.4223 13.69C100.522 13.69 101.572 14.69 101.572 16.69C101.572 17.49 101.342 18.14 100.882 18.64C100.422 19.14 99.8223 19.39 99.0823 19.39C98.6423 19.39 98.2823 19.3 98.0023 19.12C97.7423 18.94 97.4923 18.76 97.2523 18.58C97.0323 18.4 96.7723 18.31 96.4723 18.31C96.0323 18.31 95.7023 18.46 95.4823 18.76V24.79ZM109.753 21.67C109.753 22.81 110.193 23.38 111.073 23.38C111.373 23.38 111.633 23.29 111.853 23.11C112.093 22.91 112.273 22.64 112.393 22.3C112.513 21.96 112.573 21.57 112.573 21.13V17.11C112.573 16.43 112.693 15.84 112.933 15.34C113.173 14.82 113.523 14.42 113.983 14.14C114.443 13.86 114.983 13.72 115.603 13.72C116.683 13.72 117.523 13.96 118.123 14.44C118.723 14.9 119.023 15.76 119.023 17.02V24.82C119.023 26.04 118.773 26.88 118.273 27.34C117.773 27.8 116.893 28.03 115.633 28.03C115.093 28.03 114.633 27.98 114.253 27.88C113.873 27.76 113.563 27.59 113.323 27.37C113.103 27.15 112.933 26.86 112.813 26.5C111.993 27.04 111.123 27.42 110.203 27.64C109.303 27.86 108.293 27.97 107.173 27.97C105.753 27.97 104.733 27.42 104.113 26.32C103.493 25.2 103.183 23.37 103.183 20.83C103.183 19.57 103.213 18.55 103.273 17.77C103.333 16.97 103.423 16.29 103.543 15.73C103.683 15.15 103.883 14.72 104.143 14.44C104.423 14.16 104.743 13.96 105.103 13.84C105.483 13.72 105.973 13.66 106.573 13.66C107.693 13.66 108.493 13.87 108.973 14.29C109.473 14.71 109.723 15.34 109.723 16.18L109.753 21.67ZM121.843 9.52C121.843 8.86 122.123 8.32 122.683 7.9C123.263 7.46 124.073 7.24 125.113 7.24C127.293 7.24 128.383 8 128.383 9.52C128.383 10.36 128.103 10.95 127.543 11.29C127.003 11.63 126.193 11.8 125.113 11.8C124.173 11.8 123.393 11.62 122.773 11.26C122.153 10.9 121.843 10.32 121.843 9.52ZM128.353 24.79C128.353 25.99 128.103 26.83 127.603 27.31C127.103 27.77 126.223 28 124.963 28C123.783 28 122.973 27.73 122.533 27.19C122.113 26.63 121.903 25.72 121.903 24.46V17.08C121.903 16.06 122.173 15.24 122.713 14.62C123.273 14 124.013 13.69 124.933 13.69C126.013 13.69 126.853 13.93 127.453 14.41C128.053 14.87 128.353 15.73 128.353 16.99V24.79ZM132.573 21.58V18.04C132.073 18.02 131.673 17.94 131.373 17.8C131.073 17.64 130.853 17.44 130.713 17.2C130.593 16.96 130.533 16.66 130.533 16.3C130.533 15.16 131.223 14.54 132.603 14.44V11.65C132.603 10.89 133.153 10.21 134.253 9.61C135.353 8.99 136.443 8.68 137.523 8.68C138.183 8.68 138.613 8.87 138.813 9.25C139.013 9.63 139.113 10.2 139.113 10.96L139.143 14.41H139.953C141.053 14.41 141.803 14.56 142.203 14.86C142.623 15.14 142.833 15.66 142.833 16.42C142.833 16.74 142.773 17.01 142.653 17.23C142.533 17.45 142.333 17.62 142.053 17.74C141.793 17.86 141.473 17.95 141.093 18.01C140.713 18.05 140.243 18.07 139.683 18.07H139.143V21.37C139.143 21.69 139.153 21.96 139.173 22.18C139.213 22.38 139.263 22.54 139.323 22.66C139.383 22.78 139.463 22.86 139.563 22.9C139.683 22.94 139.823 22.96 139.983 22.96C140.223 22.96 140.423 22.88 140.583 22.72C140.743 22.54 140.863 22.35 140.943 22.15C141.043 21.93 141.163 21.74 141.303 21.58C141.463 21.4 141.643 21.31 141.843 21.31C142.303 21.31 142.653 21.42 142.893 21.64C143.153 21.86 143.283 22.13 143.283 22.45C143.283 22.99 143.173 23.57 142.953 24.19C142.753 24.81 142.453 25.41 142.053 25.99C141.653 26.57 141.093 27.05 140.373 27.43C139.673 27.81 138.883 28 138.003 28C136.023 28 134.623 27.5 133.803 26.5C132.983 25.5 132.573 23.86 132.573 21.58ZM153.153 13.48C155.013 13.48 156.563 13.86 157.803 14.62C159.043 15.38 159.663 16.21 159.663 17.11C159.663 17.37 159.553 17.61 159.333 17.83C159.113 18.05 158.833 18.16 158.493 18.16C158.193 18.16 157.863 18.06 157.503 17.86C157.143 17.64 156.803 17.41 156.483 17.17C156.163 16.93 155.743 16.71 155.223 16.51C154.703 16.31 154.153 16.21 153.573 16.21C152.793 16.21 152.403 16.45 152.403 16.93C152.403 17.27 152.603 17.54 153.003 17.74C153.403 17.94 153.983 18.15 154.743 18.37C155.523 18.59 156.113 18.8 156.513 19C158.013 19.58 159.043 20.21 159.603 20.89C160.163 21.55 160.443 22.43 160.443 23.53C160.443 24.07 160.293 24.61 159.993 25.15C159.693 25.67 159.243 26.17 158.643 26.65C158.043 27.11 157.223 27.49 156.183 27.79C155.163 28.07 153.993 28.21 152.673 28.21C150.093 28.21 148.163 27.62 146.883 26.44C146.263 25.86 145.953 25.26 145.953 24.64C145.953 24.26 146.073 23.96 146.313 23.74C146.573 23.52 146.933 23.41 147.393 23.41C147.853 23.41 148.553 23.64 149.493 24.1C150.433 24.54 151.303 24.76 152.103 24.76C153.203 24.76 153.753 24.49 153.753 23.95C153.753 23.67 153.463 23.45 152.883 23.29C152.303 23.11 151.543 22.9 150.603 22.66C149.663 22.42 148.913 22.12 148.353 21.76C147.473 21.38 146.853 20.91 146.493 20.35C146.153 19.77 145.983 19.07 145.983 18.25C145.983 16.85 146.643 15.71 147.963 14.83C149.303 13.93 151.033 13.48 153.153 13.48ZM87.68 60.97C86.5 60.97 85.64 60.65 85.1 60.01C84.56 59.35 84.29 58.21 84.29 56.59H78.74C77.44 56.59 76.47 56.28 75.83 55.66C75.21 55.04 74.9 54.24 74.9 53.26C74.9 52.2 75.17 51.26 75.71 50.44C77.13 48.22 78.73 45.82 80.51 43.24C81.55 41.72 82.98 40.96 84.8 40.96L87.41 40.99C88.87 40.99 89.86 41.24 90.38 41.74C90.9 42.22 91.16 43.07 91.16 44.29V52.21C92.02 52.29 92.61 52.5 92.93 52.84C93.25 53.18 93.41 53.72 93.41 54.46C93.41 55.22 93.24 55.75 92.9 56.05C92.56 56.33 91.98 56.5 91.16 56.56C91.16 58.14 90.87 59.27 90.29 59.95C89.71 60.63 88.84 60.97 87.68 60.97ZM84.26 52.33L84.35 45.94L80.33 52.33H84.26ZM111.311 52.54C111.311 55.96 111.211 58.35 111.011 59.71C110.851 60.93 110.601 61.98 110.261 62.86C109.921 63.76 109.441 64.55 108.821 65.23C108.201 65.93 107.411 66.45 106.451 66.79C105.491 67.13 104.351 67.3 103.031 67.3C101.971 67.3 100.981 67.14 100.061 66.82C99.1606 66.52 98.4406 66.14 97.9006 65.68C97.3806 65.24 96.9706 64.8 96.6706 64.36C96.3706 63.92 96.2206 63.54 96.2206 63.22C96.2206 62.9 96.3206 62.6 96.5206 62.32C96.7406 62.06 97.0306 61.93 97.3906 61.93C97.6506 61.93 97.9506 62.01 98.2906 62.17C98.6506 62.33 98.9906 62.51 99.3106 62.71C99.6306 62.91 100.011 63.09 100.451 63.25C100.891 63.41 101.321 63.49 101.741 63.49C102.821 63.49 103.581 63.22 104.021 62.68C104.481 62.14 104.711 61.37 104.711 60.37C104.371 60.51 104.041 60.63 103.721 60.73C103.401 60.83 103.091 60.91 102.791 60.97C102.491 61.03 102.201 61.07 101.921 61.09C101.661 61.11 101.401 61.12 101.141 61.12C99.9606 61.12 98.9506 60.79 98.1106 60.13C97.2706 59.47 96.6606 58.66 96.2806 57.7C95.9206 56.72 95.7406 55.67 95.7406 54.55C95.7406 53.43 95.7506 52.48 95.7706 51.7C95.8106 50.92 95.8806 50.23 95.9806 49.63C96.0806 49.01 96.1906 48.52 96.3106 48.16C96.4506 47.8 96.6406 47.51 96.8806 47.29C97.1206 47.05 97.3906 46.89 97.6906 46.81C97.9906 46.73 98.3506 46.69 98.7706 46.69C100.031 46.69 100.911 46.91 101.411 47.35C101.931 47.77 102.191 48.44 102.191 49.36L102.221 54.19C102.221 54.51 102.221 54.75 102.221 54.91C102.221 55.05 102.231 55.23 102.251 55.45C102.291 55.67 102.331 55.83 102.371 55.93C102.431 56.03 102.501 56.14 102.581 56.26C102.681 56.36 102.801 56.43 102.941 56.47C103.101 56.51 103.291 56.53 103.511 56.53C104.111 56.53 104.481 56.37 104.621 56.05C104.781 55.71 104.861 55.1 104.861 54.22L104.891 49.36C104.891 48.74 104.991 48.24 105.191 47.86C105.411 47.48 105.771 47.19 106.271 46.99C106.771 46.79 107.451 46.69 108.311 46.69C108.831 46.69 109.271 46.78 109.631 46.96C110.011 47.12 110.311 47.34 110.531 47.62C110.751 47.88 110.911 48.28 111.011 48.82C111.131 49.34 111.211 49.87 111.251 50.41C111.291 50.95 111.311 51.66 111.311 52.54ZM123.683 53.89C123.683 52.85 123.553 51.94 123.293 51.16C123.033 50.36 122.653 49.96 122.153 49.96C121.813 49.96 121.513 50.16 121.253 50.56C120.993 50.96 120.803 51.45 120.683 52.03C120.563 52.61 120.503 53.23 120.503 53.89C120.503 54.91 120.643 55.81 120.923 56.59C121.203 57.35 121.603 57.73 122.123 57.73C122.643 57.73 123.033 57.35 123.293 56.59C123.553 55.83 123.683 54.93 123.683 53.89ZM122.123 61.21C120.563 61.21 119.153 60.93 117.893 60.37C116.653 59.81 115.653 58.97 114.893 57.85C114.153 56.73 113.783 55.42 113.783 53.92C113.783 51.64 114.563 49.83 116.123 48.49C117.683 47.15 119.683 46.48 122.123 46.48C124.563 46.48 126.553 47.15 128.093 48.49C129.633 49.83 130.403 51.64 130.403 53.92C130.403 56.18 129.613 57.96 128.033 59.26C126.473 60.56 124.503 61.21 122.123 61.21ZM139.489 54.67C139.489 55.81 139.929 56.38 140.809 56.38C141.109 56.38 141.369 56.29 141.589 56.11C141.829 55.91 142.009 55.64 142.129 55.3C142.249 54.96 142.309 54.57 142.309 54.13V50.11C142.309 49.43 142.429 48.84 142.669 48.34C142.909 47.82 143.259 47.42 143.719 47.14C144.179 46.86 144.719 46.72 145.339 46.72C146.419 46.72 147.259 46.96 147.859 47.44C148.459 47.9 148.759 48.76 148.759 50.02V57.82C148.759 59.04 148.509 59.88 148.009 60.34C147.509 60.8 146.629 61.03 145.369 61.03C144.829 61.03 144.369 60.98 143.989 60.88C143.609 60.76 143.299 60.59 143.059 60.37C142.839 60.15 142.669 59.86 142.549 59.5C141.729 60.04 140.859 60.42 139.939 60.64C139.039 60.86 138.029 60.97 136.909 60.97C135.489 60.97 134.469 60.42 133.849 59.32C133.229 58.2 132.919 56.37 132.919 53.83C132.919 52.57 132.949 51.55 133.009 50.77C133.069 49.97 133.159 49.29 133.279 48.73C133.419 48.15 133.619 47.72 133.879 47.44C134.159 47.16 134.479 46.96 134.839 46.84C135.219 46.72 135.709 46.66 136.309 46.66C137.429 46.66 138.229 46.87 138.709 47.29C139.209 47.71 139.459 48.34 139.459 49.18L139.489 54.67Z" fill="url(#paint0_linear)"/>
<defs>
<linearGradient id="paint0_linear" x1="118" y1="0" x2="118" y2="66" gradientUnits="userSpaceOnUse">
<stop stop-color="#FBBD65"/>
<stop offset="1" stop-color="#E54672"/>
</linearGradient>
</defs>
</svg>
