<svg width="164" height="68" viewBox="0 0 164 68" fill="none" xmlns="http://www.w3.org/2000/svg">
<path d="M19.7759 12.6207H17.6379V10.1264C17.6379 6.78627 20.3953 4.06896 23.7845 4.06896V6.20689C21.5741 6.20689 19.7759 7.96521 19.7759 10.1264V12.6207Z" fill="#91563A"/>
<path d="M8.5517 37.2069H53.4482V45.7586H8.5517V37.2069Z" fill="#6E3D26"/>
<path d="M48.1034 9.41379H45.9655V7.27586C45.9668 6.14222 46.4177 5.05538 47.2193 4.25378C48.0209 3.45217 49.1077 3.00127 50.2414 3V5.13793C49.6746 5.1386 49.1312 5.36406 48.7304 5.76486C48.3296 6.16565 48.1041 6.70905 48.1034 7.27586V9.41379Z" fill="#699B46"/>
<path d="M46.5 26.5172C51.5182 26.5172 55.5862 22.4492 55.5862 17.431C55.5862 12.4129 51.5182 8.34483 46.5 8.34483C41.4819 8.34483 37.4138 12.4129 37.4138 17.431C37.4138 22.4492 41.4819 26.5172 46.5 26.5172Z" fill="#EF7800"/>
<path d="M58.3214 13.409C57.6136 11.1737 56.0519 9.30832 53.9758 8.21855C52.9657 7.69322 51.8589 7.38001 50.7233 7.29818C49.5877 7.21635 48.4474 7.36764 47.3724 7.74273L45.9655 8.23245L46.4372 9.69439C47.145 11.9297 48.7068 13.7951 50.7828 14.8849C51.7929 15.4102 52.8997 15.7234 54.0353 15.8053C55.1709 15.8871 56.3112 15.7358 57.3862 15.3607L58.7931 14.871L58.3214 13.409Z" fill="#7EB357"/>
<path d="M22.7155 27.5862C21.778 27.5876 20.8774 27.2211 20.2073 26.5655C19.8061 26.1742 19.2678 25.9552 18.7074 25.9552C18.147 25.9552 17.6087 26.1742 17.2075 26.5655C16.5371 27.2213 15.6361 27.5878 14.6982 27.5862C14.0083 27.5892 13.3325 27.3909 12.7534 27.0158C12.1744 26.6407 11.7172 26.1049 11.4379 25.4741L10.2834 22.8276C9.14168 20.2123 8.55213 17.3894 8.5517 14.5357C8.5517 12.1005 10.5611 10.1263 13.0397 10.1263C14.2259 10.1248 15.3654 10.5886 16.2132 11.4181C16.8802 12.0687 17.7751 12.4329 18.7069 12.4329C19.6386 12.4329 20.5335 12.0687 21.2005 11.4181C22.0484 10.5887 23.1879 10.1251 24.374 10.1267C26.8527 10.1267 28.862 12.1008 28.862 14.5361C28.8614 17.3899 28.2716 20.2127 27.1297 22.828L25.9752 25.4745C25.6958 26.1052 25.2387 26.6408 24.6598 27.0158C24.0809 27.3908 23.4053 27.5891 22.7155 27.5862V27.5862Z" fill="#EA606F"/>
<path d="M53.4483 36.1379C58.1713 36.1379 62 32.3092 62 27.5862C62 22.8632 58.1713 19.0345 53.4483 19.0345C48.7253 19.0345 44.8965 22.8632 44.8965 27.5862C44.8965 32.3092 48.7253 36.1379 53.4483 36.1379Z" fill="#F88400"/>
<path d="M38.3031 12.845C38.1469 13.9628 37.8966 15.0654 37.5549 16.1411C34.7206 25.0871 25.9229 30.9329 16.5139 29.5737C7.10485 28.2145 0.267209 20.1076 0.00825242 10.7145C-0.0237547 9.58557 0.0394937 8.45599 0.197326 7.33773C0.270015 6.81982 0.364352 6.30992 0.47539 5.8075L2.26404 5.37845C2.68933 6.83004 3.2795 8.22814 4.02302 9.54541C6.87114 14.5963 11.8829 18.3028 17.973 19.1831C24.0632 20.0634 29.896 17.9246 34.0209 13.8811C35.0981 12.8266 36.0501 11.6512 36.8579 10.3784L38.4573 11.297C38.4257 11.8109 38.3758 12.3267 38.3031 12.845V12.845Z" fill="#F9A40F"/>
<path d="M2.26404 5.37845C2.68933 6.83004 3.2795 8.22814 4.02302 9.54541L0.00825242 10.7145C-0.0237547 9.58557 0.0394937 8.45599 0.197326 7.33773C0.270015 6.81982 0.364352 6.30992 0.47539 5.8075L2.26404 5.37845Z" fill="#91563A"/>
<path d="M42.7587 8.41926L41.6376 12.2929L38.4358 11.2214C38.6562 12.2611 38.7935 13.3166 38.8464 14.3781C38.8504 14.4716 38.8548 14.5659 38.8573 14.6595C39.1856 23.936 33.0249 32.4436 23.8436 34.5755C14.5703 36.7289 5.3514 31.6477 1.83892 22.9712C1.80284 22.8821 1.76676 22.793 1.73389 22.7032C1.35953 21.7433 1.06069 20.7557 0.840103 19.7494C0.727728 19.2393 0.638469 18.729 0.567383 18.2195L2.09066 17.1682C2.83717 18.1599 3.67664 19.0782 4.59765 19.9104C4.79207 20.0841 4.98729 20.2535 5.18665 20.4189C7.42924 22.3003 10.0787 23.6343 12.9257 24.3153C15.7726 24.9963 18.739 25.0057 21.5902 24.3427C27.5932 22.9488 32.3038 18.8298 34.7544 13.5534C34.758 13.5475 34.7597 13.54 34.7633 13.5345C35.2361 12.5161 35.6216 11.4595 35.9157 10.3759L32.2553 9.14856L33.7292 5.13793L42.7587 8.41926Z" fill="#FFB431"/>
<path d="M4.59805 19.9104C3.64721 20.8438 2.60603 21.8603 1.73389 22.703C1.35953 21.7432 1.06069 20.7556 0.840103 19.7492C0.727728 19.2392 0.638469 18.7289 0.567383 18.2194L2.09066 17.1681C2.83729 18.1599 3.6769 19.0781 4.59805 19.9104Z" fill="#91563A"/>
<path d="M42.7586 8.41926L41.6376 12.2929L38.4357 11.2214C38.6562 12.2611 38.7935 13.3166 38.8464 14.3781C38.8504 14.4716 38.8548 14.5659 38.8573 14.6595L34.7637 13.5345C35.2364 12.5161 35.6218 11.4595 35.9157 10.3759L32.2552 9.14856L33.7292 5.13793L42.7586 8.41926Z" fill="#91563A"/>
<path d="M47.4019 23.1233C47.8511 22.6741 48.1034 22.0648 48.1034 21.4296C48.1034 20.7943 47.8511 20.1851 47.4019 19.7359C46.9527 19.2867 46.3435 19.0344 45.7082 19.0344C45.073 19.0344 44.4637 19.2867 44.0145 19.7359L43.7323 20.0181C40.4508 18.4027 36.0742 19.2077 33.0054 22.2763C29.264 26.0176 28.8845 31.7051 32.1585 34.979C35.4325 38.253 41.1196 37.8738 44.8613 34.1322C47.9301 31.0634 48.7351 26.6867 47.1195 23.4052L47.4019 23.1233Z" fill="#FDD560"/>
<path d="M0 28.6552H10.6897V54.3103H0V28.6552Z" fill="#804A32"/>
<path d="M51.3104 28.6552H62V54.3103H51.3104V28.6552Z" fill="#804A32"/>
<path d="M0 43.6207H62V54.3104H0V43.6207Z" fill="#91563A"/>
<path d="M0 28.6552H62V39.3448H0V28.6552Z" fill="#91563A"/>
<path d="M4.27582 47.8966H6.41375V50.0345H4.27582V47.8966Z" fill="#754029"/>
<path d="M55.5862 47.8966H57.7241V50.0345H55.5862V47.8966Z" fill="#754029"/>
<path d="M4.27588 32.931H6.41381V35.069H4.27588V32.931Z" fill="#754029"/>
<path d="M55.5862 32.9311H57.7241V35.069H55.5862V32.9311Z" fill="#754029"/>
<path d="M16.0345 65C20.7574 65 24.5862 61.1713 24.5862 56.4483C24.5862 51.7253 20.7574 47.8965 16.0345 47.8965C11.3115 47.8965 7.48273 51.7253 7.48273 56.4483C7.48273 61.1713 11.3115 65 16.0345 65Z" fill="#F88400"/>
<path d="M11.7586 55.3793H13.8965V57.5172H11.7586V55.3793Z" fill="#E56B00"/>
<path d="M14.9655 58.5862H17.1034V60.7241H14.9655V58.5862Z" fill="#E56B00"/>
<path d="M42.7586 65C44.5297 65 45.9655 63.5642 45.9655 61.7931C45.9655 60.022 44.5297 58.5862 42.7586 58.5862C40.9875 58.5862 39.5517 60.022 39.5517 61.7931C39.5517 63.5642 40.9875 65 42.7586 65Z" fill="#E64972"/>
<path d="M51.3104 58.5862C53.0815 58.5862 54.5172 57.1504 54.5172 55.3793C54.5172 53.6082 53.0815 52.1724 51.3104 52.1724C49.5392 52.1724 48.1035 53.6082 48.1035 55.3793C48.1035 57.1504 49.5392 58.5862 51.3104 58.5862Z" fill="#F7A568"/>
<path d="M86.3858 12.22C85.9658 12.56 85.7558 13.35 85.7558 14.59C87.0958 14.59 88.0258 14.72 88.5458 14.98C89.0658 15.22 89.3258 15.76 89.3258 16.6C89.3258 17.28 89.0458 17.73 88.4858 17.95C87.9258 18.15 87.0158 18.25 85.7558 18.25V23.5C85.7558 25.2 85.4858 26.38 84.9458 27.04C84.4258 27.68 83.5958 28 82.4558 28C81.3358 28 80.5158 27.69 79.9958 27.07C79.4758 26.43 79.2158 25.31 79.2158 23.71L79.2458 18.25C77.7658 18.23 77.0258 17.65 77.0258 16.51C77.0258 15.33 77.7758 14.7 79.2758 14.62C79.2958 12.04 79.6658 10.21 80.3858 9.13C81.1258 8.03 82.5358 7.48 84.6158 7.48C86.2758 7.48 87.5658 7.82 88.4858 8.5C89.4258 9.18 89.8958 9.87 89.8958 10.57C89.8958 10.87 89.7658 11.14 89.5058 11.38C89.2658 11.6 88.9158 11.71 88.4558 11.71C87.4758 11.71 86.7858 11.88 86.3858 12.22ZM97.6982 24.79C97.6982 25.99 97.4482 26.83 96.9482 27.31C96.4482 27.77 95.5582 28 94.2782 28C93.0982 28 92.2982 27.73 91.8782 27.19C91.4582 26.63 91.2482 25.72 91.2482 24.46V17.08C91.2482 16.4 91.3682 15.81 91.6082 15.31C91.8482 14.79 92.1982 14.39 92.6582 14.11C93.1182 13.83 93.6582 13.69 94.2782 13.69C95.7982 13.69 96.7982 14.13 97.2782 15.01C98.4382 14.13 99.5582 13.69 100.638 13.69C102.738 13.69 103.788 14.69 103.788 16.69C103.788 17.49 103.558 18.14 103.098 18.64C102.638 19.14 102.038 19.39 101.298 19.39C100.858 19.39 100.498 19.3 100.218 19.12C99.9582 18.94 99.7082 18.76 99.4682 18.58C99.2482 18.4 98.9882 18.31 98.6882 18.31C98.2482 18.31 97.9182 18.46 97.6982 18.76V24.79ZM111.969 21.67C111.969 22.81 112.409 23.38 113.289 23.38C113.589 23.38 113.849 23.29 114.069 23.11C114.309 22.91 114.489 22.64 114.609 22.3C114.729 21.96 114.789 21.57 114.789 21.13V17.11C114.789 16.43 114.909 15.84 115.149 15.34C115.389 14.82 115.739 14.42 116.199 14.14C116.659 13.86 117.199 13.72 117.819 13.72C118.899 13.72 119.739 13.96 120.339 14.44C120.939 14.9 121.239 15.76 121.239 17.02V24.82C121.239 26.04 120.989 26.88 120.489 27.34C119.989 27.8 119.109 28.03 117.849 28.03C117.309 28.03 116.849 27.98 116.469 27.88C116.089 27.76 115.779 27.59 115.539 27.37C115.319 27.15 115.149 26.86 115.029 26.5C114.209 27.04 113.339 27.42 112.419 27.64C111.519 27.86 110.509 27.97 109.389 27.97C107.969 27.97 106.949 27.42 106.329 26.32C105.709 25.2 105.399 23.37 105.399 20.83C105.399 19.57 105.429 18.55 105.489 17.77C105.549 16.97 105.639 16.29 105.759 15.73C105.899 15.15 106.099 14.72 106.359 14.44C106.639 14.16 106.959 13.96 107.319 13.84C107.699 13.72 108.189 13.66 108.789 13.66C109.909 13.66 110.709 13.87 111.189 14.29C111.689 14.71 111.939 15.34 111.939 16.18L111.969 21.67ZM124.059 9.52C124.059 8.86 124.339 8.32 124.899 7.9C125.479 7.46 126.289 7.24 127.329 7.24C129.509 7.24 130.599 8 130.599 9.52C130.599 10.36 130.319 10.95 129.759 11.29C129.219 11.63 128.409 11.8 127.329 11.8C126.389 11.8 125.609 11.62 124.989 11.26C124.369 10.9 124.059 10.32 124.059 9.52ZM130.569 24.79C130.569 25.99 130.319 26.83 129.819 27.31C129.319 27.77 128.439 28 127.179 28C125.999 28 125.189 27.73 124.749 27.19C124.329 26.63 124.119 25.72 124.119 24.46V17.08C124.119 16.06 124.389 15.24 124.929 14.62C125.489 14 126.229 13.69 127.149 13.69C128.229 13.69 129.069 13.93 129.669 14.41C130.269 14.87 130.569 15.73 130.569 16.99V24.79ZM134.789 21.58V18.04C134.289 18.02 133.889 17.94 133.589 17.8C133.289 17.64 133.069 17.44 132.929 17.2C132.809 16.96 132.749 16.66 132.749 16.3C132.749 15.16 133.439 14.54 134.819 14.44V11.65C134.819 10.89 135.369 10.21 136.469 9.61C137.569 8.99 138.659 8.68 139.739 8.68C140.399 8.68 140.829 8.87 141.029 9.25C141.229 9.63 141.329 10.2 141.329 10.96L141.359 14.41H142.169C143.269 14.41 144.019 14.56 144.419 14.86C144.839 15.14 145.049 15.66 145.049 16.42C145.049 16.74 144.989 17.01 144.869 17.23C144.749 17.45 144.549 17.62 144.269 17.74C144.009 17.86 143.689 17.95 143.309 18.01C142.929 18.05 142.459 18.07 141.899 18.07H141.359V21.37C141.359 21.69 141.369 21.96 141.389 22.18C141.429 22.38 141.479 22.54 141.539 22.66C141.599 22.78 141.679 22.86 141.779 22.9C141.899 22.94 142.039 22.96 142.199 22.96C142.439 22.96 142.639 22.88 142.799 22.72C142.959 22.54 143.079 22.35 143.159 22.15C143.259 21.93 143.379 21.74 143.519 21.58C143.679 21.4 143.859 21.31 144.059 21.31C144.519 21.31 144.869 21.42 145.109 21.64C145.369 21.86 145.499 22.13 145.499 22.45C145.499 22.99 145.389 23.57 145.169 24.19C144.969 24.81 144.669 25.41 144.269 25.99C143.869 26.57 143.309 27.05 142.589 27.43C141.889 27.81 141.099 28 140.219 28C138.239 28 136.839 27.5 136.019 26.5C135.199 25.5 134.789 23.86 134.789 21.58ZM155.368 13.48C157.228 13.48 158.778 13.86 160.018 14.62C161.258 15.38 161.878 16.21 161.878 17.11C161.878 17.37 161.768 17.61 161.548 17.83C161.328 18.05 161.048 18.16 160.708 18.16C160.408 18.16 160.078 18.06 159.718 17.86C159.358 17.64 159.018 17.41 158.698 17.17C158.378 16.93 157.958 16.71 157.438 16.51C156.918 16.31 156.368 16.21 155.788 16.21C155.008 16.21 154.618 16.45 154.618 16.93C154.618 17.27 154.818 17.54 155.218 17.74C155.618 17.94 156.198 18.15 156.958 18.37C157.738 18.59 158.328 18.8 158.728 19C160.228 19.58 161.258 20.21 161.818 20.89C162.378 21.55 162.658 22.43 162.658 23.53C162.658 24.07 162.508 24.61 162.208 25.15C161.908 25.67 161.458 26.17 160.858 26.65C160.258 27.11 159.438 27.49 158.398 27.79C157.378 28.07 156.208 28.21 154.888 28.21C152.308 28.21 150.378 27.62 149.098 26.44C148.478 25.86 148.168 25.26 148.168 24.64C148.168 24.26 148.288 23.96 148.528 23.74C148.788 23.52 149.148 23.41 149.608 23.41C150.068 23.41 150.768 23.64 151.708 24.1C152.648 24.54 153.518 24.76 154.318 24.76C155.418 24.76 155.968 24.49 155.968 23.95C155.968 23.67 155.678 23.45 155.098 23.29C154.518 23.11 153.758 22.9 152.818 22.66C151.878 22.42 151.128 22.12 150.568 21.76C149.688 21.38 149.068 20.91 148.708 20.35C148.368 19.77 148.198 19.07 148.198 18.25C148.198 16.85 148.858 15.71 150.178 14.83C151.518 13.93 153.248 13.48 155.368 13.48ZM95.5355 60.97C94.3555 60.97 93.4955 60.65 92.9555 60.01C92.4155 59.35 92.1455 58.21 92.1455 56.59H86.5955C85.2955 56.59 84.3255 56.28 83.6855 55.66C83.0655 55.04 82.7555 54.24 82.7555 53.26C82.7555 52.2 83.0255 51.26 83.5655 50.44C84.9855 48.22 86.5855 45.82 88.3655 43.24C89.4055 41.72 90.8355 40.96 92.6555 40.96L95.2655 40.99C96.7255 40.99 97.7155 41.24 98.2355 41.74C98.7555 42.22 99.0155 43.07 99.0155 44.29V52.21C99.8755 52.29 100.465 52.5 100.785 52.84C101.105 53.18 101.265 53.72 101.265 54.46C101.265 55.22 101.095 55.75 100.755 56.05C100.415 56.33 99.8355 56.5 99.0155 56.56C99.0155 58.14 98.7255 59.27 98.1455 59.95C97.5655 60.63 96.6955 60.97 95.5355 60.97ZM92.1155 52.33L92.2055 45.94L88.1855 52.33H92.1155ZM119.166 52.54C119.166 55.96 119.066 58.35 118.866 59.71C118.706 60.93 118.456 61.98 118.116 62.86C117.776 63.76 117.296 64.55 116.676 65.23C116.056 65.93 115.266 66.45 114.306 66.79C113.346 67.13 112.206 67.3 110.886 67.3C109.826 67.3 108.836 67.14 107.916 66.82C107.016 66.52 106.296 66.14 105.756 65.68C105.236 65.24 104.826 64.8 104.526 64.36C104.226 63.92 104.076 63.54 104.076 63.22C104.076 62.9 104.176 62.6 104.376 62.32C104.596 62.06 104.886 61.93 105.246 61.93C105.506 61.93 105.806 62.01 106.146 62.17C106.506 62.33 106.846 62.51 107.166 62.71C107.486 62.91 107.866 63.09 108.306 63.25C108.746 63.41 109.176 63.49 109.596 63.49C110.676 63.49 111.436 63.22 111.876 62.68C112.336 62.14 112.566 61.37 112.566 60.37C112.226 60.51 111.896 60.63 111.576 60.73C111.256 60.83 110.946 60.91 110.646 60.97C110.346 61.03 110.056 61.07 109.776 61.09C109.516 61.11 109.256 61.12 108.996 61.12C107.816 61.12 106.806 60.79 105.966 60.13C105.126 59.47 104.516 58.66 104.136 57.7C103.776 56.72 103.596 55.67 103.596 54.55C103.596 53.43 103.606 52.48 103.626 51.7C103.666 50.92 103.736 50.23 103.836 49.63C103.936 49.01 104.046 48.52 104.166 48.16C104.306 47.8 104.496 47.51 104.736 47.29C104.976 47.05 105.246 46.89 105.546 46.81C105.846 46.73 106.206 46.69 106.626 46.69C107.886 46.69 108.766 46.91 109.266 47.35C109.786 47.77 110.046 48.44 110.046 49.36L110.076 54.19C110.076 54.51 110.076 54.75 110.076 54.91C110.076 55.05 110.086 55.23 110.106 55.45C110.146 55.67 110.186 55.83 110.226 55.93C110.286 56.03 110.356 56.14 110.436 56.26C110.536 56.36 110.656 56.43 110.796 56.47C110.956 56.51 111.146 56.53 111.366 56.53C111.966 56.53 112.336 56.37 112.476 56.05C112.636 55.71 112.716 55.1 112.716 54.22L112.746 49.36C112.746 48.74 112.846 48.24 113.046 47.86C113.266 47.48 113.626 47.19 114.126 46.99C114.626 46.79 115.306 46.69 116.166 46.69C116.686 46.69 117.126 46.78 117.486 46.96C117.866 47.12 118.166 47.34 118.386 47.62C118.606 47.88 118.766 48.28 118.866 48.82C118.986 49.34 119.066 49.87 119.106 50.41C119.146 50.95 119.166 51.66 119.166 52.54ZM131.539 53.89C131.539 52.85 131.409 51.94 131.149 51.16C130.889 50.36 130.509 49.96 130.009 49.96C129.669 49.96 129.369 50.16 129.109 50.56C128.849 50.96 128.659 51.45 128.539 52.03C128.419 52.61 128.359 53.23 128.359 53.89C128.359 54.91 128.499 55.81 128.779 56.59C129.059 57.35 129.459 57.73 129.979 57.73C130.499 57.73 130.889 57.35 131.149 56.59C131.409 55.83 131.539 54.93 131.539 53.89ZM129.979 61.21C128.419 61.21 127.009 60.93 125.749 60.37C124.509 59.81 123.509 58.97 122.749 57.85C122.009 56.73 121.639 55.42 121.639 53.92C121.639 51.64 122.419 49.83 123.979 48.49C125.539 47.15 127.539 46.48 129.979 46.48C132.419 46.48 134.409 47.15 135.949 48.49C137.489 49.83 138.259 51.64 138.259 53.92C138.259 56.18 137.469 57.96 135.889 59.26C134.329 60.56 132.359 61.21 129.979 61.21ZM147.345 54.67C147.345 55.81 147.785 56.38 148.665 56.38C148.965 56.38 149.225 56.29 149.445 56.11C149.685 55.91 149.865 55.64 149.985 55.3C150.105 54.96 150.165 54.57 150.165 54.13V50.11C150.165 49.43 150.285 48.84 150.525 48.34C150.765 47.82 151.115 47.42 151.575 47.14C152.035 46.86 152.575 46.72 153.195 46.72C154.275 46.72 155.115 46.96 155.715 47.44C156.315 47.9 156.615 48.76 156.615 50.02V57.82C156.615 59.04 156.365 59.88 155.865 60.34C155.365 60.8 154.485 61.03 153.225 61.03C152.685 61.03 152.225 60.98 151.845 60.88C151.465 60.76 151.155 60.59 150.915 60.37C150.695 60.15 150.525 59.86 150.405 59.5C149.585 60.04 148.715 60.42 147.795 60.64C146.895 60.86 145.885 60.97 144.765 60.97C143.345 60.97 142.325 60.42 141.705 59.32C141.085 58.2 140.775 56.37 140.775 53.83C140.775 52.57 140.805 51.55 140.865 50.77C140.925 49.97 141.015 49.29 141.135 48.73C141.275 48.15 141.475 47.72 141.735 47.44C142.015 47.16 142.335 46.96 142.695 46.84C143.075 46.72 143.565 46.66 144.165 46.66C145.285 46.66 146.085 46.87 146.565 47.29C147.065 47.71 147.315 48.34 147.315 49.18L147.345 54.67Z" fill="url(#paint0_linear)"/>
<defs>
<linearGradient id="paint0_linear" x1="120" y1="0" x2="120" y2="61" gradientUnits="userSpaceOnUse">
<stop stop-color="#FBBD65"/>
<stop offset="1" stop-color="#E54672"/>
</linearGradient>
</defs>
</svg>
