<svg width="53" height="53" viewBox="0 0 53 53" fill="none" xmlns="http://www.w3.org/2000/svg">
<path d="M25.5182 9.65445C25.5182 9.65445 23.7548 3.4237 19.2875 1.89563C16.0862 0.800229 13.9111 1.15404 11.8109 0.188031C10.4749 -0.426593 8.93913 0.540227 8.91729 2.01007C8.85704 6.09489 10.1097 12.2892 18.2297 14.1825C17.9943 14.0041 25.5182 14.1825 25.5182 14.1825V9.65445Z" fill="#699B46"/>
<path d="M9.8595 7.58575C10.9986 10.407 13.3984 13.0559 18.2293 14.1824C17.9944 14.0041 25.5179 14.1824 25.5179 14.1824V9.65445C25.5179 9.65445 23.7544 3.4237 19.2875 1.89563C18.5035 1.62754 17.7813 1.44598 17.1064 1.31093C17.3094 1.7626 17.5395 2.30646 17.7627 2.90127C18.4634 4.7694 17.0797 6.77016 15.0842 6.75359C13.4389 6.74024 11.5048 6.91573 9.8595 7.58575Z" fill="#8DC971"/>
<path d="M24.1972 15.216C24.1972 15.216 21.7884 7.57766 25.9832 1.83942C27.2614 0.0913818 29.8024 -0.100284 31.3551 1.40878C31.3814 1.43425 33.7954 3.7492 31.6916 6.34154C30.1784 8.20604 28.614 11.3548 29.2403 16.2625C29.1453 16.1674 24.1972 15.216 24.1972 15.216V15.216Z" fill="#91563A"/>
<path d="M36.0995 10.669C33.5928 10.669 31.2217 11.2468 29.1109 12.2763C27.4632 13.0798 25.5324 13.0798 23.8846 12.2763C21.7739 11.2468 19.4027 10.669 16.8961 10.669C8.07907 10.669 0.931641 17.8164 0.931641 26.6334C0.931641 35.4505 8.07907 53 16.8961 53C19.1492 53 21.2927 51.854 23.236 50.0013C25.0706 48.2516 27.925 48.2516 29.7595 50.0013C31.7029 51.854 33.8464 53 36.0995 53C44.9165 53 52.0639 35.4505 52.0639 26.6334C52.0639 17.8164 44.9165 10.669 36.0995 10.669Z" fill="#EC6C6E"/>
<path d="M26.4979 38.0696C25.4627 38.0696 24.4276 37.7344 23.5635 37.0644C23.2145 36.7939 23.151 36.2913 23.4219 35.9423C23.6924 35.5933 24.1951 35.5299 24.544 35.8004C25.6944 36.6928 27.3009 36.6928 28.4513 35.8004C28.8003 35.5299 29.3029 35.5933 29.5734 35.9423C29.8443 36.2913 29.7809 36.7939 29.4315 37.0644C28.5682 37.7344 27.533 38.0696 26.4979 38.0696Z" fill="#57565C"/>
<path d="M18.4427 30.5351C18.2636 30.2723 18.0028 30.2403 17.8964 30.2403C17.7905 30.2403 17.5252 30.269 17.3501 30.5351C17.1075 30.9043 16.6118 31.007 16.2426 30.7644C15.8734 30.5222 15.7707 30.026 16.0133 29.6568C16.4314 29.0208 17.1354 28.6407 17.8964 28.6407C18.6578 28.6407 19.3618 29.0208 19.7799 29.6568C20.0225 30.026 19.9198 30.5222 19.5506 30.7644C19.4152 30.8533 18.8163 31.0838 18.4427 30.5351V30.5351Z" fill="#57565C"/>
<path d="M35.6453 30.5351C35.4658 30.2723 35.205 30.2403 35.0991 30.2403C34.9931 30.2403 34.7275 30.269 34.5528 30.5351C34.3102 30.9043 33.8144 31.007 33.4452 30.7644C33.076 30.5222 32.9733 30.026 33.216 29.6568C33.6337 29.0208 34.3376 28.6407 35.0991 28.6407C35.8605 28.6407 36.5645 29.0208 36.9822 29.6568C37.2248 30.026 37.1221 30.5222 36.7529 30.7644C36.6174 30.8533 36.019 31.0838 35.6453 30.5351V30.5351Z" fill="#57565C"/>
</svg>
